<?xml version="1.0" encoding="utf-8"?>
<!-- Generator: Adobe Illustrator 23.1.0, SVG Export Plug-In . SVG Version: 6.00 Build 0)  -->
<svg version="1.1" id="Layer_1" xmlns="http://www.w3.org/2000/svg" xmlns:xlink="http://www.w3.org/1999/xlink" x="0px" y="0px"
	 viewBox="0 0 1422 870" style="enable-background:new 0 0 1422 870;" xml:space="preserve">
<style type="text/css">
	.st0{fill:#FFFFFF;}
	.st1{fill:#FDF7EC;}
	.st2{fill:none;stroke:#4A4A4A;stroke-width:2.5;stroke-linecap:round;stroke-linejoin:round;}
	.st3{fill:none;stroke:#4A4A4A;stroke-width:4;stroke-linecap:round;stroke-linejoin:round;}
	.st4{fill:none;stroke:#FB9300;stroke-width:2.5;stroke-linecap:round;stroke-linejoin:round;}
	.st5{fill:#FB9300;stroke:#4A4A4A;stroke-width:2.5;stroke-linecap:round;stroke-linejoin:round;}
	.st6{fill:#FB9300;}
	.st7{fill:none;stroke:#FF0083;stroke-width:2.5;stroke-linecap:round;stroke-linejoin:round;}
	.st8{fill:#FFFFFF;stroke:#FB9300;stroke-width:2.5;stroke-linecap:round;stroke-linejoin:round;}
</style>
<title>Blockchain_11,1</title>
<g>
	<ellipse class="st0" cx="710.1" cy="452" rx="291.9" ry="293"/>
	<path class="st1" d="M532.6,686.1c5.8-11.8,1.1-25.5,1.1-25.5c-0.5-4.4-0.8-8.8-1.5-13.2c-1.7-10.9-5-17.2-9.8-27
		c-4-8.2-8.4-17.6-20-17.1c-5.3,0.2-10.6,3.2-16,4c-4.5,0.7-8.8,0-13,1l-10.1,1.3c-8.9-14.3-16.6-29.4-22.9-45
		c-62-161.7,18.1-277.6,76.5-331.7l1.5,5.4c-1.8,7.6,9.9,10.1,12,17c1.9,6.2-1.3,18.5-2,25c-1.8,16.3-17.8,20.8-31,30
		c-7.7,5.4-13.9,8.3-15,18s-0.3,19.3-2,29.2c-1.5,9.4-2.6,18.9-6.1,27.8c-2.4,6.2-6.6,11.4-8.9,18c-5.5,16,7.5,19.4,13.2,33
		c5.3,12.6,5.4,27.5,8,41c3,19,4.8,23.3,12.3,21s9.5-14,0-28.5c-1.1-1.9-1.7-4-1.7-6.2c-0.6-12.1,8.4-11,13.4-2.8
		c6.2,10.3,5.1,25.3,10,36.4c6.3,14.4,13,29.2,19.5,43c7.4,15.8,11.6,18.5,26.2,26c9,4.6,19.4,5.2,27.2,12c3.7,3.2,4,6.5,8.5,9
		c6.4,3.5,15,3.2,21.9,6.1c18.8,7.7,46.3,29.2,26.4,51c-10.4,11.3-28.2,18.6-23.2,37.2c3.9,14.5,20.3,19.9,33.2,21.8
		c17.3,2.5,26.3,5.6,37.8,20.2c2.9,3.7,6.8,10.6,9.2,11.8l6.1,8.1C633.5,743,574.9,718.2,532.6,686.1z"/>
	<path class="st1" d="M805.5,181.3c-12.5-0.2-24.9,6.1-36,12.8c-12.5,7.6-23.2,2.9-35.2-3.5c-14-7.5-25.5-6.2-40.8-6.3
		c-7.6,0-14.5,0.1-22,0c-10.1-0.1-10.5-2.6-15-11c0,0-1.7-6-3.3-7.6c-44.8,10.8-71.7,20.9-108,45.2c0,0,2.6,5.4,4.2,4.4
		c8.5,3.6,14.6,1.1,23,2c10.2,1.1,8.3,5.7,10,16c3.6,22.6,17.2,7.4,34,11c15.6,3.4,21.8,28.5,22,43c0.2,15-15.1,31,1,45
		c16.6,14.4,41.9-31.7,60.3-16.3c6,5.1,13.3,31.4,23.1,14.1c7.9-14.1,0.4-38.1,25.3-28.9c7.9,2.9,10.5,8.7,11.4,17
		c1.3,13.8,8.7,35.5,2.8,48.8c-2.9,6.6-10.2,8.7-14.5,14.3c-5.7,7.3-5,13.3-6.3,22c-1.5,10.3-5.6,11.7-12,19.2
		c-6.8,8-5.7,13-5.2,22.8c0.4,7.8,1,16.8-1.8,24c-3.1,7.9-7.4,8.3-15,12.3c-16.6,8.6-19,21.9-19,39.8c0,28.7-10.2,2.7-17-8
		c-11.8-18.6-28.1-5.4-43,3.8c-16.8,10.4-23.7,10.6-40.8,2c-17.8-9-21.9,10.2-11.5,22.5c5.9,7,10,10.1,19.3,11.8
		c7.5,1.4,16.1-0.4,22.3,5.7s4.2,13.4,11.7,18.3c5.5,3.6,13.4,5.3,18.2,8.8c6.7,4.9,8.6,12.9,13.8,19c13.2,15.5,20-18.6,36.1-12.8
		c5.2,1.8,7.1,7.2,10.9,10.6c3.7,3.3,7.1,3.8,10.9,6.5c1.9,1.4,0.9,4.9,3,5.9c5.6,2.8,10.8,1.4,16.5-0.3c10.7-3.2,26.5,0.6,35.7-7.7
		c2.7-2.4,2.5-5,6.2-7.8c3.9-2.9,12.8-6.1,17.8-6.3c1.3-0.1,8.1,1.4,9,2c5.5,4,1.2,5.1,4.2,9.8s9.2,7.2,12.8,11.4
		c10.2,12,0.4,26.9-6.2,38.8c-3.5,6.4-7.3,11.8-9.8,18.9c-3.4,9.5-11.6,15.2-16.4,23.7c-5.6,10-6.7,22.4-9.6,33.4l2.6,2.2
		c62.4-21.2,145.5-54.9,197.3-178.7c-1.2-3.5-4.9-8.5-4.9-8.5c-3-3.7-3.7-10.8-6.3-15.8c-3.3-6.3-5.9-11.3-7.7-18.2
		c-5.6-21.1-2.4-40.5,10.6-58.4c3.9-5.4,11-8.3,9.7-14.9c-0.4-1.9-3.7-6.2-5-8c-3.2-4.2-13-10.6-14-16c-1.3-6.9,6.9-13.2,5.8-20.8
		c-1.1-7.1-9.4-11.5-8.8-19.8c0.5-7.2,10.3-19.1,15.8-23.2l4.8-2.6C955.7,252.6,852.9,192.8,812.8,179
		C812.3,178.9,805.5,181.3,805.5,181.3z"/>
	<g>
		<path class="st2" d="M499,469.8c-0.9-1.9-1.5-4-1.7-6.2c-0.6-12.1,8.4-11,13.4-2.8c6.2,10.3,5.1,25.3,10,36.4
			c6.3,14.4,13,29.2,19.5,43c7.4,15.8,11.6,18.5,26.2,26c9,4.5,19.4,5.2,27.2,12c3.7,3.2,4,6.5,8.5,9c6.4,3.5,15,3.2,21.9,6.1
			c18.8,7.7,46.3,29.2,26.4,51c-10.4,11.3-28.2,18.6-23.2,37.2c3.9,14.5,20.3,19.9,33.2,21.8c17.3,2.5,26.3,5.6,37.8,20.2
			c2.9,3.7,6.8,10.6,9.2,11.8"/>
		<path class="st2" d="M518.5,238.3c-1.8,7.6,9.9,10.1,12,17c1.9,6.2-1.3,18.5-2,25c-1.8,16.3-17.8,20.8-31,30
			c-7.7,5.4-13.9,8.3-15,18s-0.3,19.3-2,29.2c-1.5,9.4-2.6,18.9-6.1,27.8c-2.4,6.2-6.6,11.4-8.9,18c-5.5,16,7.5,19.4,13.3,33
			c5.3,12.6,5.4,27.5,7.9,41"/>
		<path class="st2" d="M549.5,215.3c8.5,3.6,14.6,1.1,23,2c10.2,1.1,8.3,5.7,10,16c3.6,22.6,17.2,7.4,34,11
			c15.6,3.4,21.8,28.5,22,43c0.2,15-15.1,31,1,45c16.6,14.4,41.9-31.7,60.3-16.3c6,5.1,13.3,31.4,23.1,14.1
			c7.9-14.1,0.4-38.1,25.3-28.9c7.9,2.9,10.5,8.7,11.4,17c1.3,13.8,8.7,35.5,2.8,48.8c-2.9,6.6-10.2,8.7-14.5,14.3
			c-5.7,7.3-5,13.3-6.3,22c-1.5,10.3-5.6,11.7-12,19.2c-6.8,8-5.7,13-5.2,22.8c0.4,7.8,1,16.8-1.8,24c-3.1,7.9-7.4,8.3-15,12.3
			c-16.6,8.6-19,21.9-19,39.7c0,28.7-10.2,2.7-17-8c-11.8-18.6-28.1-5.4-43,3.8c-16.8,10.4-23.7,10.6-40.8,2
			c-17.8-9-21.9,10.2-11.5,22.5c5.9,7,10,10.1,19.3,11.8c7.5,1.4,16.1-0.4,22.3,5.7s4.2,13.4,11.7,18.3c5.5,3.6,13.4,5.3,18.2,8.8
			c6.7,4.9,8.6,12.9,13.8,19c13.2,15.5,20-18.6,36.1-12.8c5.2,1.8,7.1,7.2,10.9,10.6c3.7,3.3,7.1,3.8,10.9,6.5
			c1.9,1.4,0.9,4.9,3,5.9c5.6,2.8,10.8,1.4,16.5-0.3c10.7-3.2,26.5,0.6,35.7-7.7c2.7-2.4,2.5-5,6.2-7.8c3.9-2.9,12.8-6.1,17.8-6.3
			c1.3-0.1,8.1,1.4,9,2c5.5,4,1.2,5.1,4.2,9.8s9.2,7.2,12.8,11.4c10.2,12,0.4,26.9-6.2,38.8c-3.5,6.4-7.3,11.8-9.8,18.9
			c-3.4,9.5-11.6,15.2-16.4,23.7c-5.6,10-6.7,22.4-9.6,33.4"/>
		<path class="st2" d="M656.5,173.3c4.5,8.4,4.9,10.9,15,11c7.5,0.1,14.4,0,22,0c15.3,0,26.7-1.3,40.8,6.3c12,6.4,22.7,11,35.2,3.5
			c11.1-6.7,23.5-12.9,36-12.8"/>
		<path class="st2" d="M977.5,351.3c-5.5,4.1-15.3,16-15.8,23.2c-0.6,8.2,7.7,12.6,8.8,19.8c1.2,7.6-7,13.9-5.8,20.8
			c1,5.4,10.8,11.7,14,16c1.4,1.8,4.6,6.1,5,8c1.3,6.5-5.8,9.5-9.7,14.9c-13,17.9-16.2,37.3-10.6,58.4c1.8,6.9,4.4,11.9,7.7,18.2
			c2.6,5,3.2,12.1,6.3,15.8"/>
		<path class="st2" d="M473.5,608.3c4.2-1,8.5-0.3,13-1c5.4-0.8,10.8-3.8,16-4c11.5-0.5,15.9,8.9,20,17.1c4.8,9.9,8.2,16.1,9.8,27
			c0.7,4.3,0.9,8.8,1.5,13.2"/>
	</g>
	<path class="st2" d="M518.5,238.3c-1.8,7.6,9.9,10.1,12,17c1.9,6.2-1.3,18.5-2,25c-1.8,16.3-17.8,20.8-31,30
		c-7.7,5.4-13.9,8.3-15,18s-0.3,19.3-2,29.2c-1.5,9.4-2.6,18.9-6.1,27.8c-2.4,6.2-6.6,11.4-8.9,18c-5.5,16,7.5,19.4,13.3,33
		c5.3,12.6,5.4,27.5,7.9,41c0,0,0.9,30.2,15.7,18.9c3-7.6,5-13.3-3.4-26.4c-1.1-1.9-1.7-4-1.7-6.2c-0.6-12.1,8.4-11,13.4-2.8
		c6.2,10.3,5.1,25.3,10,36.4c6.3,14.4,13,29.2,19.5,43c7.4,15.8,11.6,18.5,26.2,26c9,4.5,19.4,5.2,27.2,12c3.7,3.2,4,6.5,8.5,9
		c6.4,3.5,15,3.2,21.9,6.1c18.8,7.7,46.3,29.2,26.4,51c-10.4,11.3-28.2,18.6-23.2,37.2c3.9,14.5,20.3,19.9,33.2,21.8
		c17.3,2.5,26.3,5.6,37.8,20.2c2.9,3.7,6.8,10.6,9.2,11.8"/>
</g>
<circle class="st3" cx="708" cy="450" r="290"/>
<g>
	<path class="st4" d="M328.5,680.8c19,30.5,41.6,58.7,67.2,83.9"/>
	<path class="st4" d="M318.8,664.5c1.4,2.5,2.9,5,4.4,7.5"/>
	<path class="st4" d="M308,644.3c1.6,3.2,3.3,6.4,5,9.6"/>
	<path class="st4" d="M395.1,290.6c-16.7,33.8-28,70.1-33.4,107.4"/>
	<path class="st4" d="M417.8,251.2c-3.9,5.9-7.6,11.9-11.2,18"/>
	<path class="st4" d="M434.4,228.3c-3.5,4.5-7,9.1-10.3,13.8"/>
	<path class="st4" d="M1321.4,450c0-18-0.9-35.9-2.7-53.8"/>
	<path class="st4" d="M217,133.7c-6,10.2-11.7,20.7-17,31.3"/>
	<path class="st4" d="M248.6,117.3c-19.6,29.4-36.3,60.6-49.7,93.3"/>
	<path class="st4" d="M1119,691.4c9.2-15.3,17.6-31.1,25-47.4"/>
	<path class="st4" d="M1143.6,680.7c3.4-6.2,6.7-12.6,9.8-19"/>
	<path class="st4" d="M1184.9,805.1c4.6-5.4,9.1-10.9,13.5-16.5"/>
	<path class="st4" d="M1073,370.5c-2.8-12.3-6.1-24.4-10.2-36.3"/>
	<path class="st4" d="M770.7,107.2c-12.5-1.4-25.1-2.2-37.7-2.3"/>
	<path class="st4" d="M1106.4,407.5c-4.9-44.9-17.5-88.6-37.3-129.1"/>
	<path class="st4" d="M1098.6,211.4c-19.2-33.1-43.1-63.2-71-89.3"/>
	<path class="st4" d="M1108.4,229.4c-1.4-2.7-2.8-5.4-4.3-8.1"/>
</g>
<g>
	<path class="st2" d="M368.7,207.3c0-10.3-8.4-18.7-18.7-18.7c-10.3,0-18.7,8.4-18.7,18.7S339.7,226,350,226
		C360.3,226,368.7,217.7,368.7,207.3L368.7,207.3z"/>
	<line class="st2" x1="336.3" y1="194" x2="356.3" y2="156"/>
	<line class="st2" x1="360" y1="224" x2="403.3" y2="205.3"/>
	<line class="st2" x1="350.7" y1="206.7" x2="376" y2="183.3"/>
</g>
<g>
	<path class="st2" d="M1171.1,557.3c4.7,6.4,13.8,7.7,20.2,3c6.4-4.7,7.7-13.8,3-20.2s-13.8-7.7-20.2-3
		C1167.7,541.8,1166.3,550.9,1171.1,557.3z"/>
	<line class="st2" x1="1197.3" y1="550.6" x2="1202.5" y2="583.4"/>
	<line class="st2" x1="1168.7" y1="542.9" x2="1150.5" y2="574.5"/>
	<line class="st2" x1="1182.5" y1="549.4" x2="1177.6" y2="575.5"/>
</g>
<g>
	<path class="st2" d="M147.3,369c4,4.9,11.2,5.6,16,1.6c4.9-4,5.6-11.2,1.6-16c-4-4.9-11.2-5.6-16-1.6l0,0
		C144,357,143.3,364.1,147.3,369L147.3,369z"/>
	<line class="st2" x1="167.6" y1="362.7" x2="173" y2="388.4"/>
	<line class="st2" x1="144.9" y1="357.8" x2="131.7" y2="383.4"/>
	<line class="st2" x1="156" y1="362.3" x2="153.1" y2="383.1"/>
</g>
<g>
	<path class="st5" d="M327.3,499.8l-37.5,3.7c-1.2,0.1-2.3-0.8-2.4-2c-0.1-0.7,0.2-1.4,0.8-1.9l24-19.6l-28.1-14.8
		c-1.1-0.6-1.5-1.9-0.9-3c0.3-0.6,1-1.1,1.7-1.1l38.2-3.8l-2-20.7c-24-5.5-47.9,9.6-53.4,33.6s9.6,47.9,33.6,53.4
		c9.4,2.1,19.3,1.2,28.1-2.8L327.3,499.8z"/>
	<path class="st5" d="M327.6,459.1c0.1,1.2-0.8,2.3-2,2.4l0,0l-33.1,3.3l24.6,12.9c0.6,0.3,1.1,1,1.1,1.7c0.1,0.7-0.2,1.4-0.8,1.9
		l-20.9,17.1l32.5-3.2c0.6-0.1,1.2,0.1,1.6,0.5s0.7,0.9,0.8,1.5l2.1,21.5c21.3-12.4,28.5-39.7,16.1-61c-5.4-9.3-14-16.3-24.1-19.8
		L327.6,459.1z"/>
</g>
<g>
	<path class="st5" d="M327.3,499.8l-37.5,3.7c-1.2,0.1-2.3-0.8-2.4-2c-0.1-0.7,0.2-1.4,0.8-1.9l24-19.6l-28.1-14.8
		c-1.1-0.6-1.5-1.9-0.9-3c0.3-0.6,1-1.1,1.7-1.1l38.2-3.8l-2-20.7c-24-5.5-47.9,9.6-53.4,33.6s9.6,47.9,33.6,53.4
		c9.4,2.1,19.3,1.2,28.1-2.8L327.3,499.8z"/>
	<path class="st5" d="M327.6,459.1c0.1,1.2-0.8,2.3-2,2.4l0,0l-33.1,3.3l24.6,12.9c0.6,0.3,1.1,1,1.1,1.7c0.1,0.7-0.2,1.4-0.8,1.9
		l-20.9,17.1l32.5-3.2c0.6-0.1,1.2,0.1,1.6,0.5s0.7,0.9,0.8,1.5l2.1,21.5c21.3-12.4,28.5-39.7,16.1-61c-5.4-9.3-14-16.3-24.1-19.8
		L327.6,459.1z"/>
</g>
<polygon class="st6" points="585.3,91.6 560.4,124.1 519.5,115.7 530.5,42.7 "/>
<polygon class="st6" points="588,98.4 572.6,157.1 522.8,122.3 563,131 "/>
<g>
	<polygon class="st2" points="585.3,91.6 560.4,124.1 519.5,115.7 530.5,42.7 	"/>
	<polygon class="st2" points="588,98.4 572.6,157.1 522.8,122.3 563,131 	"/>
	<line class="st2" x1="560.2" y1="123.4" x2="530.9" y2="43.6"/>
	<polyline class="st2" points="519.5,115.7 547,87.4 585.3,91.6 	"/>
	<line class="st2" x1="563" y1="131" x2="572.6" y2="157.1"/>
</g>
<path class="st4" d="M1227.2,229.6l-16.5-31.3l5.5-11.4l12,2.6c0,0,7.3,16,9.4,24.1c3.4,12.8,1.5,26.4,1.5,26.4"/>
<path class="st4" d="M1190,169.8l-7.8,2.5l7.5,19.6l18,14.9c0,0,11.7,21,18.4,28.9"/>
<path class="st4" d="M1211.3,179l-14.2-26.6c0,0-11-2.4-12,6.9l4.9,10.4"/>
<path class="st7" d="M1222.7,209.8"/>
<path class="st7" d="M1220.2,204.6"/>
<path class="st7" d="M1217.3,198.6"/>
<path class="st4" d="M1187.9,134.1c-8.8-17.3-20-33.3-33.3-47.4"/>
<path class="st4" d="M1186.7,148.7c-2.7-7.9-6.6-15.3-11.4-22.1"/>
<path class="st4" d="M1201.8,150.6c-1.6-4.5-3.7-8.7-6.5-12.6"/>
<path class="st4" d="M1203.3,155.8c2.1-1.4,4.7-1.6,7-0.7c2.6,4.9,15.7,30.1,15.7,30.1"/>
<polyline class="st4" points="1198.6,164.3 1191.9,162.6 1200.6,180.5 1211.3,189.2 "/>
<polyline class="st4" points="1231.2,190.9 1234.7,178.8 1226.3,165.4 1220.7,166.1 "/>
<polygon class="st5" points="1009.8,271.9 994.4,277.1 961.7,232.9 987.4,222.8 980,217.4 990,212.5 998.3,218.6 1034.6,204.5 
	1049.2,224.2 1020.9,235.2 1027.9,240.4 1017.9,245.3 1010,239.4 991.2,246.7 "/>
<path class="st5" d="M482.3,736.9c3.7-9.2,11.9-13,19.4-12.2c12.4,1.3,18.9,13.8,15.4,24.3c-0.8,2.5-2.4,4.1-2.8,6.3
	c-0.8,3.9,1.6,7.7,5.5,8.5c0.2,0,0.4,0.1,0.6,0.1c2.2,0.4,4.5-0.4,6.1-2c2.4-2.3,3-4.8,5.3-7.2c5.6-6,14.5-7.5,21.8-3.7
	c8,4.2,10.6,12.1,9.7,19.1c-1,7.2-6,13.2-12.8,15.5c-5.1,1.7-13.2,1.9-19.3-4.7c-0.9-1-1.8-2.1-2.5-3.3c-0.6-1.3-1.6-2.5-2.9-3.2
	c-4.6-2.5-10.9,0.9-11,6.8c0,2,0.9,3.7,1.8,5.3c2.5,4.9,3.8,10.3,0.5,17.1c-4.3,8.8-11.8,12.1-19.7,10.9
	c-16.3-2.5-20.6-22.9-8.5-33.1c2.2-1.8,4.8-3.1,7.5-3.8c3-0.8,5.7,0,8.2-1.6c4.6-2.8,4.9-9.7,0.5-12.5c-3.4-2.2-6.6-0.8-9.8-1.5
	c-9.5-2-14.6-11-14.4-18.4C480.9,741.3,481.4,739.1,482.3,736.9z"/>
<path class="st5" d="M1008.5,701.2l-54.1,52.9c-11.6,5.1-16.6-10-21.1-19.6c-2.6-5.5-6.8-12.3-8.1-17.4c-1.4-5.3,0-15.2,3.5-19.8
	s9.1-8.8,13.5-13.2l39.9-39c2.8,4.5,4.3,8.9,6.6,13.4l-46,45c3.3,9.8,8.9,19.5,13.2,29.3l46.5-45.5
	C1004,692,1007.2,696.6,1008.5,701.2z M999.7,659.7l-27.2,26.6c1.9,4.4,4,8.8,5.9,13.1l27.2-26.6
	C1004.1,668.3,1002.1,663.9,999.7,659.7z"/>
<path class="st8" d="M881.3,641.1c-19.1,49.9-38.9,145-187.4,121.3c67.6-0.3,121.8-14.6,159-130.8"/>
<path class="st0" d="M846.3,598.6l-4.5,15.7l12.2,7.2l-1,10l9.8,4.8l3,1.5l4.8,0.8l10.7,2.3l6.7-9.5l17.4-0.3l5.8-11.6l-7.5-27.5
	c4.1-25.5,1-37.4-4.3-41.7c-2.5,1.9-5.2,3.6-7.9,5.2L868.6,588L846.3,598.6z"/>
<g>
	<path class="st2" d="M868.6,588.1l22.9-32.3c2.8-1.4,5.5-3.1,7.9-5.2c4.5,5.6,10.2,25.3,4.3,41.7l7.4,28.9l-5.7,10.2l-17.4,0.3
		l-6.7,9.5l-10.7-2.3l-0.2-4.2"/>
	<polyline class="st2" points="876.1,627.8 866.9,638.5 853,631.6 854,621.6 	"/>
	<line class="st2" x1="888" y1="631.7" x2="897.4" y2="610.4"/>
	<polyline class="st2" points="876.2,584.8 846.3,598.6 841.8,614.4 859.8,624.6 	"/>
	<line class="st2" x1="859.8" y1="624.6" x2="871.4" y2="595.1"/>
	<path class="st2" d="M897.1,566c0,17.8-7.7,34.8-7.7,34.8l-4.9,11.2"/>
</g>
<g>
	<g>
		<path class="st4" d="M868.6,588.1l22.9-32.3c2.8-1.4,5.5-3.1,7.9-5.2c4.5,5.6,10.2,25.3,4.3,41.7l7.4,28.9l-5.7,10.2l-17.4,0.3
			l-6.7,9.5l-10.7-2.3l-0.2-4.2"/>
		<path class="st4" d="M868.6,588.1l22.9-32.3c2.8-1.4,5.5-3.1,7.9-5.2c4.5,5.6,10.2,25.3,4.3,41.7l7.4,28.9l-5.7,10.2l-17.4,0.3
			l-6.7,9.5l-10.7-2.3l-0.2-4.2"/>
	</g>
	<g>
		<polyline class="st4" points="876.1,627.8 866.9,638.5 853,631.6 854,621.6 		"/>
		<polyline class="st4" points="876.1,627.8 866.9,638.5 853,631.6 854,621.6 		"/>
	</g>
	<g>
		<line class="st4" x1="888" y1="631.7" x2="897.4" y2="610.4"/>
		<line class="st4" x1="888" y1="631.7" x2="897.4" y2="610.4"/>
	</g>
	<g>
		<polyline class="st4" points="876.2,584.8 846.3,598.6 841.8,614.4 859.8,624.6 		"/>
		<polyline class="st4" points="876.2,584.8 846.3,598.6 841.8,614.4 859.8,624.6 		"/>
	</g>
	<g>
		<line class="st4" x1="859.8" y1="624.6" x2="871.4" y2="595.1"/>
		<line class="st4" x1="859.8" y1="624.6" x2="871.4" y2="595.1"/>
	</g>
	<g>
		<path class="st4" d="M897.1,566c0,17.8-7.7,34.8-7.7,34.8l-4.9,11.2"/>
		<path class="st4" d="M897.1,566c0,17.8-7.7,34.8-7.7,34.8l-4.9,11.2"/>
	</g>
</g>
<path class="st4" d="M872.4,647.2c-10.3,29.4-17.2,50.8-43.6,81.3"/>
</svg>
